<?xml version="1.0" encoding="utf-8"?>
<!-- Generator: Adobe Illustrator 18.0.0, SVG Export Plug-In . SVG Version: 6.00 Build 0)  -->
<!DOCTYPE svg PUBLIC "-//W3C//DTD SVG 1.1//EN" "http://www.w3.org/Graphics/SVG/1.1/DTD/svg11.dtd">
<svg version="1.1" id="Layer_1" xmlns="http://www.w3.org/2000/svg" xmlns:xlink="http://www.w3.org/1999/xlink" x="0px" y="0px"
	 viewBox="480.9 0 990.3 1060.5" enable-background="new 480.9 0 990.3 1060.5" xml:space="preserve">
<g>
	<g>
		<path fill="#00B0C2" d="M839.7,701.4c-66.8-16.7-83.5-44.5-83.5-105.8c0-39,0-72.4,0-111.3c0-100.2,77.9-183.7,178.1-189.3
			c55.7-5.6,105.8-5.6,155.9,22.3c61.2,27.8,100.2,77.9,105.8,150.3c0,44.5,0,89.1,0,133.6c0,61.2-22.3,89.1-83.5,100.2
			c0,72.4,0,144.7,0,217.1c0,27.8-11.1,55.7-22.3,77.9c-27.8,50.1-89.1,72.4-144.7,61.2c-61.2-16.7-100.2-61.2-100.2-122.5
			c0-66.8,0-128,0-194.8C839.7,729.3,839.7,718.1,839.7,701.4z"/>
		<path fill="#00B0C2" d="M778.5,339.6c-50.1,55.7-55.7,116.9-50.1,183.7c0,27.8,0,55.7,0,83.5c0,50.1,16.7,89.1,61.2,111.3
			c16.7,5.6,16.7,16.7,16.7,33.4c0,44.5,0,89.1,0,133.6c0,61.2-44.5,111.3-100.2,122.5c-61.2,11.1-122.5-22.3-139.2-83.5
			c-11.1-39-5.6-77.9-5.6-116.9c0-33.4,0-72.4-5.6-105.8c0-5.6-11.1-16.7-16.7-16.7c-33.4-11.1-55.7-33.4-55.7-66.8
			c0-44.5-5.6-94.6,0-139.2c11.1-94.6,72.4-150.3,178.1-150.3c39,0,72.4,5.6,111.3,11.1C778.5,334,778.5,334,778.5,339.6z"/>
		<path fill="#00B0C2" d="M1390.8,684.7c0,61.2,0,128,0,194.8c0,100.2-94.6,155.9-178.1,111.3c-39-22.3-61.2-55.7-61.2-94.6
			c0-50.1,0-100.2,0-150.3c0-11.1,11.1-22.3,16.7-27.8c33.4-22.3,55.7-55.7,61.2-94.6c0-50.1,0-100.2,0-150.3s-16.7-94.6-50.1-133.6
			c72.4-33.4,211.5-27.8,261.6,61.2c16.7,27.8,22.3,61.2,27.8,94.6c5.6,27.8,0,61.2,0,89.1C1463.2,645.8,1452.1,662.5,1390.8,684.7z
			"/>
		<path fill="#00B0C2" d="M1106.9,133.6c0,72.4-61.2,133.6-133.6,133.6S839.7,206,839.7,133.6C845.3,61.2,906.5,0,973.3,0
			C1062.4,5.6,1106.9,66.8,1106.9,133.6z"/>
		<path fill="#00B0C2" d="M683.8,55.7c66.8,0,116.9,50.1,116.9,116.9s-55.7,122.5-116.9,122.5s-116.9-55.7-116.9-116.9
			C561.3,111.3,617,55.7,683.8,55.7z"/>
		<path fill="#00B0C2" d="M1268.4,55.7c66.8,0,116.9,50.1,116.9,116.9s-50.1,116.9-116.9,116.9c-66.8,0-122.5-55.7-122.5-116.9
			C1151.4,105.8,1207.1,55.7,1268.4,55.7z"/>
	</g>
</g>
</svg>
